<svg xmlns="http://www.w3.org/2000/svg" width="1200" height="760" viewBox="0 0 1200 760" role="img" aria-label="PIPIXIA Runtime Architecture">
  <defs>
    <filter id="shadow" x="-20%" y="-20%" width="140%" height="140%">
      <feDropShadow dx="0" dy="10" stdDeviation="12" flood-color="#101828" flood-opacity="0.10"/>
    </filter>
    <marker id="arrow" markerWidth="10" markerHeight="10" refX="8" refY="3" orient="auto" markerUnits="strokeWidth">
      <path d="M0,0 L0,6 L8,3 z" fill="#B8C2D8"/>
    </marker>
    <linearGradient id="soft" x1="0" y1="0" x2="1" y2="1">
      <stop offset="0" stop-color="#EEF6FF"/>
      <stop offset="1" stop-color="#FAF5FF"/>
    </linearGradient>
  </defs>
  <style>
    text { font-family: Inter, ui-sans-serif, system-ui, -apple-system, BlinkMacSystemFont, "Segoe UI", sans-serif; }
  </style>
  <rect width="1200" height="760" fill="url(#soft)"/>
  <circle cx="1110" cy="80" r="130" fill="#E9D5FF" opacity="0.35"/>
  <circle cx="90" cy="700" r="120" fill="#BAE6FD" opacity="0.28"/>
  <text x="600.0" y="48" text-anchor="middle" font-size="28" font-weight="800" fill="#172033">PIPIXIA Runtime Architecture</text>
  <text x="600.0" y="76" text-anchor="middle" font-size="14" font-weight="500" fill="#667085">Local-first agent runtime with memory, tools, scheduling, and web integration</text>
<rect x="70" y="130" width="190" height="120" rx="18" fill="#FFFFFF" stroke="#D8DEE9" stroke-width="1.3" filter="url(#shadow)"/>
<rect x="70" y="130" width="190" height="7" rx="3.5" fill="#3B82F6"/>
<circle cx="102" cy="168" r="18" fill="#3B82F6" opacity="0.13"/>
<text x="102" y="174" text-anchor="middle" font-size="17" font-weight="800" fill="#3B82F6">01</text>
<text x="132" y="170" text-anchor="start" font-size="17" font-weight="700" fill="#172033">Clients</text>
<text x="165.0" y="200" text-anchor="middle" font-size="13" font-weight="400" fill="#667085">Web UI</text>
<text x="165.0" y="218" text-anchor="middle" font-size="13" font-weight="400" fill="#667085">Browser workspace</text>
<text x="165.0" y="236" text-anchor="middle" font-size="13" font-weight="400" fill="#667085">REST + SSE</text><rect x="340" y="120" width="230" height="140" rx="18" fill="#FFFFFF" stroke="#D8DEE9" stroke-width="1.3" filter="url(#shadow)"/>
<rect x="340" y="120" width="230" height="7" rx="3.5" fill="#06B6D4"/>
<circle cx="372" cy="158" r="18" fill="#06B6D4" opacity="0.13"/>
<text x="372" y="164" text-anchor="middle" font-size="17" font-weight="800" fill="#06B6D4">02</text>
<text x="402" y="160" text-anchor="start" font-size="17" font-weight="700" fill="#172033">API &amp; Session Layer</text>
<text x="455.0" y="190" text-anchor="middle" font-size="13" font-weight="400" fill="#667085">FastAPI routes</text>
<text x="455.0" y="208" text-anchor="middle" font-size="13" font-weight="400" fill="#667085">UserTurnService</text>
<text x="455.0" y="226" text-anchor="middle" font-size="13" font-weight="400" fill="#667085">SessionDispatcher</text><rect x="660" y="105" width="260" height="170" rx="18" fill="#FFFFFF" stroke="#D8DEE9" stroke-width="1.3" filter="url(#shadow)"/>
<rect x="660" y="105" width="260" height="7" rx="3.5" fill="#8B5CF6"/>
<circle cx="692" cy="143" r="18" fill="#8B5CF6" opacity="0.13"/>
<text x="692" y="149" text-anchor="middle" font-size="17" font-weight="800" fill="#8B5CF6">03</text>
<text x="722" y="145" text-anchor="start" font-size="17" font-weight="700" fill="#172033">Agent Runtime</text>
<text x="790.0" y="175" text-anchor="middle" font-size="13" font-weight="400" fill="#667085">PromptBuilder</text>
<text x="790.0" y="193" text-anchor="middle" font-size="13" font-weight="400" fill="#667085">LangGraph ReAct loop</text>
<text x="790.0" y="211" text-anchor="middle" font-size="13" font-weight="400" fill="#667085">Completion discipline</text><rect x="970" y="130" width="170" height="120" rx="18" fill="#FFFFFF" stroke="#D8DEE9" stroke-width="1.3" filter="url(#shadow)"/>
<rect x="970" y="130" width="170" height="7" rx="3.5" fill="#F43F5E"/>
<circle cx="1002" cy="168" r="18" fill="#F43F5E" opacity="0.13"/>
<text x="1002" y="174" text-anchor="middle" font-size="17" font-weight="800" fill="#F43F5E">04</text>
<text x="1032" y="170" text-anchor="start" font-size="17" font-weight="700" fill="#172033">LLM Layer</text>
<text x="1055.0" y="200" text-anchor="middle" font-size="13" font-weight="400" fill="#667085">Model selection</text>
<text x="1055.0" y="218" text-anchor="middle" font-size="13" font-weight="400" fill="#667085">Fallback retry</text>
<text x="1055.0" y="236" text-anchor="middle" font-size="13" font-weight="400" fill="#667085">Thinking config</text><line x1="260" y1="190" x2="340" y2="190" stroke="#B8C2D8" stroke-width="2.2" stroke-linecap="round" marker-end="url(#arrow)"/><line x1="570" y1="190" x2="660" y2="190" stroke="#B8C2D8" stroke-width="2.2" stroke-linecap="round" marker-end="url(#arrow)"/><line x1="920" y1="190" x2="970" y2="190" stroke="#B8C2D8" stroke-width="2.2" stroke-linecap="round" marker-end="url(#arrow)"/><rect x="95" y="390" width="210" height="145" rx="18" fill="#FFFFFF" stroke="#D8DEE9" stroke-width="1.3" filter="url(#shadow)"/>
<rect x="95" y="390" width="210" height="7" rx="3.5" fill="#F59E0B"/>
<circle cx="127" cy="428" r="18" fill="#F59E0B" opacity="0.13"/>
<text x="127" y="434" text-anchor="middle" font-size="17" font-weight="800" fill="#F59E0B">T</text>
<text x="157" y="430" text-anchor="start" font-size="17" font-weight="700" fill="#172033">Tools &amp; Sandbox</text>
<text x="200.0" y="460" text-anchor="middle" font-size="13" font-weight="400" fill="#667085">File / exec / web</text>
<text x="200.0" y="478" text-anchor="middle" font-size="13" font-weight="400" fill="#667085">Path + command policy</text>
<text x="200.0" y="496" text-anchor="middle" font-size="13" font-weight="400" fill="#667085">Approval gate</text><rect x="365" y="390" width="210" height="145" rx="18" fill="#FFFFFF" stroke="#D8DEE9" stroke-width="1.3" filter="url(#shadow)"/>
<rect x="365" y="390" width="210" height="7" rx="3.5" fill="#10B981"/>
<circle cx="397" cy="428" r="18" fill="#10B981" opacity="0.13"/>
<text x="397" y="434" text-anchor="middle" font-size="17" font-weight="800" fill="#10B981">M</text>
<text x="427" y="430" text-anchor="start" font-size="17" font-weight="700" fill="#172033">Memory &amp; Skills</text>
<text x="470.0" y="460" text-anchor="middle" font-size="13" font-weight="400" fill="#667085">SQLite FTS5 + ANN</text>
<text x="470.0" y="478" text-anchor="middle" font-size="13" font-weight="400" fill="#667085">Task / chunk recall</text>
<text x="470.0" y="496" text-anchor="middle" font-size="13" font-weight="400" fill="#667085">Skill evolution</text><rect x="635" y="390" width="210" height="145" rx="18" fill="#FFFFFF" stroke="#D8DEE9" stroke-width="1.3" filter="url(#shadow)"/>
<rect x="635" y="390" width="210" height="7" rx="3.5" fill="#3B82F6"/>
<circle cx="667" cy="428" r="18" fill="#3B82F6" opacity="0.13"/>
<text x="667" y="434" text-anchor="middle" font-size="17" font-weight="800" fill="#3B82F6">C</text>
<text x="697" y="430" text-anchor="start" font-size="17" font-weight="700" fill="#172033">Context Control</text>
<text x="740.0" y="460" text-anchor="middle" font-size="13" font-weight="400" fill="#667085">JIT pruning</text>
<text x="740.0" y="478" text-anchor="middle" font-size="13" font-weight="400" fill="#667085">Sliding summary</text>
<text x="740.0" y="496" text-anchor="middle" font-size="13" font-weight="400" fill="#667085">Large result persistence</text><rect x="905" y="390" width="210" height="145" rx="18" fill="#FFFFFF" stroke="#D8DEE9" stroke-width="1.3" filter="url(#shadow)"/>
<rect x="905" y="390" width="210" height="7" rx="3.5" fill="#475569"/>
<circle cx="937" cy="428" r="18" fill="#475569" opacity="0.13"/>
<text x="937" y="434" text-anchor="middle" font-size="17" font-weight="800" fill="#475569">E</text>
<text x="967" y="430" text-anchor="start" font-size="17" font-weight="700" fill="#172033">Events &amp; Jobs</text>
<text x="1010.0" y="460" text-anchor="middle" font-size="13" font-weight="400" fill="#667085">EventBus / audit</text>
<text x="1010.0" y="478" text-anchor="middle" font-size="13" font-weight="400" fill="#667085">Cron / heartbeat</text>
<text x="1010.0" y="496" text-anchor="middle" font-size="13" font-weight="400" fill="#667085">Work recovery</text><path d="M 790 275 C 495.0 275, 495.0 390, 200 390" fill="none" stroke="#B8C2D8" stroke-width="2.2" stroke-linecap="round" marker-end="url(#arrow)"/><path d="M 790 275 C 630.0 275, 630.0 390, 470 390" fill="none" stroke="#B8C2D8" stroke-width="2.2" stroke-linecap="round" marker-end="url(#arrow)"/><path d="M 790 275 C 765.0 275, 765.0 390, 740 390" fill="none" stroke="#B8C2D8" stroke-width="2.2" stroke-linecap="round" marker-end="url(#arrow)"/><path d="M 790 275 C 900.0 275, 900.0 390, 1010 390" fill="none" stroke="#B8C2D8" stroke-width="2.2" stroke-linecap="round" marker-end="url(#arrow)"/><rect x="335" y="610" width="530" height="78" rx="18" fill="#FFFFFF" stroke="#D8DEE9" stroke-width="1.3" filter="url(#shadow)"/>
<rect x="335" y="610" width="530" height="7" rx="3.5" fill="#06B6D4"/>
<text x="600.0" y="650" text-anchor="middle" font-size="17" font-weight="700" fill="#172033">Observability Contract</text>
<text x="600.0" y="680" text-anchor="middle" font-size="13" font-weight="400" fill="#667085">run_id + tool_call_id connect events, audit logs, session tool calls, and UI timeline</text><line x1="200" y1="535" x2="460" y2="610" stroke="#B8C2D8" stroke-width="2.2" stroke-linecap="round" marker-end="url(#arrow)" stroke-dasharray="7 6"/><line x1="740" y1="535" x2="600" y2="610" stroke="#B8C2D8" stroke-width="2.2" stroke-linecap="round" marker-end="url(#arrow)" stroke-dasharray="7 6"/><line x1="1010" y1="535" x2="740" y2="610" stroke="#B8C2D8" stroke-width="2.2" stroke-linecap="round" marker-end="url(#arrow)" stroke-dasharray="7 6"/></svg>
